<?xml version="1.0" encoding="UTF-8"?>
<svg width="286px" height="46px" viewBox="0 0 286 46" version="1.1" xmlns="http://www.w3.org/2000/svg" xmlns:xlink="http://www.w3.org/1999/xlink">
    <!-- Generator: Sketch 61.2 (89653) - https://sketch.com -->
    <title>Sellular_default</title>
    <desc>Created with Sketch.</desc>
    <g id="Page-1" stroke="none" stroke-width="1" fill="none" fill-rule="evenodd">
        <g id="02-Logo-Usage" transform="translate(-378.000000, -747.000000)" fill="#00008B">
            <g id="usage" transform="translate(355.000000, 606.000000)">
                <g id="Group-7" transform="translate(0.000000, 89.000000)">
                    <g id="Group-2-Copy-3" transform="translate(0.000000, 30.000000)">
                        <g id="Sellular_default" transform="translate(22.606721, 22.653192)">
                            <g id="Group-3" transform="translate(0.000000, 0.480203)">
                                <path d="M44.3215064,11.7238072 C45.0590983,11.4216686 45.3425479,10.5358108 44.9052257,9.88169634 C40.9294559,3.93797654 34.0637462,0.0107980795 26.2604725,0.0107980795 C13.9643671,0.0107980795 3.99628616,9.76270981 3.99628616,21.7915627 C3.99628616,22.0370114 4.22616067,24.4890061 4.55197195,26.3753475 C4.69027043,27.1727441 5.54996368,27.6362309 6.31185125,27.322879 L44.3215064,11.7238072 Z" id="Fill-1"></path>
                                <path d="M1.27049788,32.9868247 C0.533528956,33.2889632 0.249456402,34.1741981 0.687401589,34.8283125 C4.66254844,40.7726553 11.5288811,44.6992108 19.3315318,44.6992108 C31.6276372,44.6992108 41.5957182,34.947922 41.5957182,22.9190691 C41.5957182,22.6736205 41.3658437,20.2216258 41.0400324,18.3352844 C40.9023569,17.5378877 40.0420406,17.0744009 39.2801531,17.3871299 L1.27049788,32.9868247 Z" id="Fill-3"></path>
                            </g>
                            <path d="M62.4726836,38.5087134 C60.1160027,37.9025673 58.1904144,37.1568769 56.6971646,36.2691501 C56.4218136,36.105933 56.3240079,35.7545801 56.4591915,35.4642779 L59.1105354,29.7660067 C59.2693917,29.4239983 59.6855331,29.3031429 60.0132133,29.4906557 C61.3588201,30.2643796 62.9343015,30.9066577 64.7409032,31.4181129 C66.8241019,32.0086848 68.8668079,32.3045937 70.869021,32.3045937 C74.9133171,32.3045937 76.9360881,31.305979 76.9360881,29.3081266 C76.9360881,28.3718086 76.3835171,27.6990051 75.2808671,27.2909623 C74.1775941,26.8841654 72.4818803,26.5377963 70.1949716,26.2524778 C67.4981513,25.8456809 65.2704244,25.3759645 63.5142829,24.8458203 C61.7575184,24.317545 60.2362352,23.379358 58.9485642,22.0349971 C57.6615162,20.6893903 57.0186151,18.7743924 57.0186151,16.2875117 C57.0186151,14.2086737 57.6216463,12.3659399 58.8264628,10.7555725 C60.0306563,9.14645095 61.7880438,7.89242014 64.0967562,6.99597189 C66.4048457,6.1001466 69.1315685,5.65161099 72.2775474,5.65161099 C74.6068177,5.65161099 76.9248747,5.90578117 79.2329642,6.41474449 C81.2875065,6.8688868 83.0262049,7.47627877 84.4503055,8.23567448 C84.7437225,8.39203897 84.8539875,8.75709712 84.7125742,9.05798976 L82.0606074,14.7051777 C81.9061118,15.0334808 81.5105284,15.15932 81.1872089,14.9917421 C78.4486498,13.5738712 75.4789703,12.8643128 72.2775474,12.8643128 C70.2348415,12.8643128 68.7029678,13.1502542 67.6819263,13.7208912 C66.6608848,14.2921512 66.1488067,15.0253823 66.1488067,15.9212076 C66.1488067,16.9403802 66.7013776,17.6536764 67.8046506,18.0604732 C68.9073007,18.4685161 70.6634422,18.855378 73.074944,19.2223051 C75.7711414,19.6714636 77.9770645,20.1499016 79.6927132,20.6594879 C81.4089849,21.1690742 82.8997428,22.0948019 84.1668559,23.4404087 C85.4321001,24.7847696 86.0662796,26.6598976 86.0662796,29.0639239 C86.0662796,31.1028921 85.4539039,32.9151005 84.2279066,34.5049101 C83.0025322,36.0947196 81.2146194,37.3275696 78.8654142,38.2040829 C76.5162089,39.0793503 73.7271896,39.5179185 70.500848,39.5179185 C67.7635349,39.5179185 65.0866494,39.1815168 62.4726836,38.5087134" id="Fill-6"></path>
                            <path d="M101.692762,14.698512 C100.410075,15.76503 99.5615948,17.1735564 99.1491912,18.9215993 C99.0551233,19.3227895 99.355393,19.7115204 99.7684196,19.7115204 L114.460453,19.7115204 C114.874102,19.7115204 115.176241,19.3209206 115.078435,18.9191075 C114.664163,17.2065736 113.818175,15.8105065 112.539848,14.7290373 C111.069648,13.4862199 109.270522,12.8644997 107.14683,12.8644997 C104.980777,12.8644997 103.163585,13.4762524 101.692762,14.698512 M123.472904,25.2746079 L99.9521946,25.2746079 C99.5198561,25.2746079 99.2121108,25.6982248 99.3448026,26.1087595 C99.8786846,27.7571279 100.865463,29.0884065 102.305138,30.1038413 C103.980294,31.286231 106.064115,31.8761799 108.557226,31.8761799 C110.272251,31.8761799 111.794158,31.6220097 113.121698,31.1124234 C114.270448,30.6713634 115.351294,30.0085275 116.363614,29.1245385 C116.626506,28.895287 117.020843,28.9052544 117.258194,29.1612935 L121.518659,33.7699969 C121.74355,34.0123307 121.748533,34.3917171 121.521774,34.6309361 C118.431239,37.8896719 114.028737,39.5181054 108.311777,39.5181054 C104.593292,39.5181054 101.303408,38.7954647 98.4452395,37.3470684 C95.585202,35.901164 93.378033,33.8933442 91.8262244,31.3254778 C90.2731699,28.7588574 89.497577,25.8458678 89.497577,22.5840172 C89.497577,19.3651512 90.2638254,16.4615061 91.7956991,13.8730818 C93.3275728,11.2852806 95.4313294,9.26811624 98.1075919,7.82158889 C100.783231,6.37568452 103.776584,5.65179788 107.085157,5.65179788 C110.312121,5.65179788 113.233832,6.34453621 115.849044,7.72876694 C118.46301,9.11548954 120.515683,11.1027515 122.007687,13.6899298 C123.499068,16.278354 124.244759,19.2829197 124.244759,22.7067415 C124.244759,22.8126457 124.198036,23.4717439 124.10646,24.684036 C124.080919,25.014208 123.804322,25.2746079 123.472904,25.2746079" id="Fill-8"></path>
                            <path d="M131.252069,-0.000186889838 L139.543125,-0.000186889838 C139.893855,-0.000186889838 140.177927,0.283262697 140.177927,0.63336966 L140.177927,38.3957073 C140.177927,38.7451913 139.893855,39.0286409 139.543125,39.0286409 L131.252069,39.0286409 C130.901962,39.0286409 130.617266,38.7451913 130.617266,38.3957073 L130.617266,0.63336966 C130.617266,0.283262697 130.901962,-0.000186889838 131.252069,-0.000186889838" id="Fill-10"></path>
                            <path d="M149.697659,-0.000186889838 L157.989339,-0.000186889838 C158.339446,-0.000186889838 158.623518,0.283262697 158.623518,0.63336966 L158.623518,38.3957073 C158.623518,38.7451913 158.339446,39.0286409 157.989339,39.0286409 L149.697659,39.0286409 C149.347552,39.0286409 149.062857,38.7451913 149.062857,38.3957073 L149.062857,0.63336966 C149.062857,0.283262697 149.347552,-0.000186889838 149.697659,-0.000186889838" id="Fill-13"></path>
                            <path d="M200.723133,6.77276312 L200.723133,38.3957696 C200.723133,38.7452536 200.43906,39.0287032 200.08833,39.0287032 L192.288171,39.0287032 C191.937441,39.0287032 191.653369,38.7452536 191.653369,38.3957696 L191.653369,36.6477266 C191.653369,36.106992 191.009845,35.8073453 190.606163,36.1692887 C189.5764,37.0919015 188.413945,37.8307393 187.118176,38.3870481 C185.361411,39.1408371 183.461987,39.5177316 181.419904,39.5177316 C177.088421,39.5177316 173.656501,38.2749142 171.12352,35.7886564 C168.59054,33.3036445 167.324673,29.6144391 167.324673,24.724155 L167.324673,6.77276312 C167.324673,6.42265616 167.608745,6.13982954 167.958852,6.13982954 L176.250531,6.13982954 C176.600638,6.13982954 176.884711,6.42265616 176.884711,6.77276312 L176.884711,23.3181205 C176.884711,28.6158244 179.111192,31.2652993 183.564154,31.2652993 C185.851685,31.2652993 187.690058,30.5214778 189.080519,29.0332117 C190.467864,27.5468145 191.163095,25.3352848 191.163095,22.4011143 L191.163095,6.77276312 C191.163095,6.42265616 191.447167,6.13982954 191.797897,6.13982954 L200.08833,6.13982954 C200.43906,6.13982954 200.723133,6.42265616 200.723133,6.77276312" id="Fill-16"></path>
                            <path d="M210.243426,-0.000186889838 L218.534482,-0.000186889838 C218.885212,-0.000186889838 219.169284,0.283262697 219.169284,0.63336966 L219.169284,38.3957073 C219.169284,38.7451913 218.885212,39.0286409 218.534482,39.0286409 L210.243426,39.0286409 C209.893319,39.0286409 209.608623,38.7451913 209.608623,38.3957073 L209.608623,0.63336966 C209.608623,0.283262697 209.893319,-0.000186889838 210.243426,-0.000186889838" id="Fill-18"></path>
                            <path d="M244.968305,31.967569 C246.200532,31.2343379 247.085144,30.1634591 247.621518,28.7536868 C247.650797,28.677062 247.664502,28.5942075 247.664502,28.5132219 L247.664502,25.9067316 C247.664502,25.5572476 247.38043,25.274421 247.030323,25.274421 L241.107784,25.274421 C237.186212,25.274421 235.225115,26.5571082 235.225115,29.1255976 C235.225115,30.3484801 235.704799,31.3165694 236.66479,32.0292427 C237.62478,32.7431619 238.942354,33.0982526 240.618133,33.0982526 C242.25155,33.0982526 243.701815,32.722604 244.968305,31.967569 M253.119194,9.28848723 C255.856507,11.7130714 257.225164,15.3705055 257.225164,20.2620355 L257.225164,38.3953335 C257.225164,38.7454405 256.941091,39.0288901 256.590361,39.0288901 L248.912927,39.0288901 C248.56282,39.0288901 248.278124,38.7454405 248.278124,38.3953335 L248.278124,36.8379182 C248.278124,36.2697731 247.577287,35.9813398 247.190425,36.3981041 C245.25923,38.478188 242.272108,39.5179185 238.227812,39.5179185 C235.693585,39.5179185 233.498876,39.0905637 231.639945,38.2346083 C229.779768,37.3780298 228.361274,36.1962631 227.380725,34.6880621 C226.400177,33.1804841 225.909902,31.4691961 225.909902,29.5535753 C225.909902,26.4973035 227.063636,24.0920313 229.372971,22.3396276 C231.680438,20.5872238 235.245673,19.7113335 240.066185,19.7113335 L247.006027,19.7113335 C247.381053,19.7113335 247.667617,19.3880141 247.639584,19.0148573 C247.511253,17.2717981 246.886418,15.9056334 245.765702,14.9120024 C244.498589,13.7919094 242.598542,13.2318628 240.066185,13.2318628 C238.30942,13.2318628 236.582558,13.5065909 234.887467,14.05667 C233.456514,14.5214027 232.207467,15.1238109 231.139703,15.8632717 C230.829466,16.078818 230.398996,15.9617004 230.226435,15.6265446 L227.393808,10.1263767 C227.246788,9.84043522 227.332134,9.48472156 227.602501,9.30842215 C229.303199,8.19767354 231.302297,7.32427504 233.601042,6.69071849 C236.113465,5.99798015 238.697528,5.65161099 241.35261,5.65161099 C246.459686,5.65161099 250.381881,6.86452603 253.119194,9.28848723" id="Fill-21"></path>
                            <path d="M279.622602,6.87374593 C281.394941,6.12930141 283.414597,5.7249964 285.68344,5.66055232 C286.038531,5.65024046 286.333194,5.94303454 286.333194,6.29750227 L286.333194,13.7724728 C286.333194,14.1400228 286.016727,14.4290791 285.6498,14.4035375 C284.957061,14.3561921 284.469902,14.3318964 284.188321,14.3318964 C281.451631,14.3318964 279.305513,15.0950299 277.753704,16.6244117 C276.200649,18.1519247 275.425057,20.445063 275.425057,23.5013348 L275.425057,38.3958319 C275.425057,38.7453159 275.140984,39.0287655 274.790254,39.0287655 L266.499198,39.0287655 C266.148468,39.0287655 265.864396,38.7453159 265.864396,38.3958319 L265.864396,6.77282542 C265.864396,6.42271846 266.148468,6.13989184 266.499198,6.13989184 L274.361653,6.13989184 C274.71176,6.13989184 274.995833,6.42271846 274.995833,6.77282542 L274.995833,8.76631702 C274.995833,9.33197027 275.676735,9.60856722 276.077925,9.20862297 C277.056605,8.23368099 278.237749,7.45559629 279.622602,6.87374593" id="Fill-23"></path>
                        </g>
                    </g>
                </g>
            </g>
        </g>
    </g>
</svg>